<svg xmlns="http://www.w3.org/2000/svg" viewBox="0 0 800 500" width="800" height="500">
  <defs>
    <linearGradient id="g" x1="0" y1="0" x2="1" y2="1">
      <stop offset="0%" stop-color="#082a3a"/>
      <stop offset="100%" stop-color="#0a0a14"/>
    </linearGradient>
  </defs>
  <rect width="800" height="500" fill="url(#g)"/>
  <g stroke="#06B6D4" stroke-width="2" fill="none" opacity="0.6">
    <polyline points="100,300 180,260 260,280 340,220 420,240 500,180 580,200 660,160 700,170"/>
    <polyline points="100,330 180,310 260,290 340,300 420,270 500,250 580,260 660,220 700,230" opacity="0.4"/>
  </g>
  <g fill="#06B6D4">
    <circle cx="180" cy="260" r="5"/>
    <circle cx="340" cy="220" r="5"/>
    <circle cx="500" cy="180" r="5"/>
    <circle cx="660" cy="160" r="5"/>
  </g>
  <g stroke="#06B6D4" stroke-width="1" fill="none" opacity="0.2">
    <line x1="100" y1="350" x2="700" y2="350"/>
    <line x1="100" y1="120" x2="700" y2="120"/>
  </g>
  <text x="60" y="410" font-family="ui-monospace, SFMono-Regular, monospace" font-size="40" fill="#f4f4f5" font-weight="600">ops hub</text>
  <text x="60" y="448" font-family="ui-monospace, SFMono-Regular, monospace" font-size="18" fill="#a1a1aa">react · .net · cosmosdb · azure functions</text>
</svg>
