<svg xmlns="http://www.w3.org/2000/svg" viewBox="0 0 800 500" width="800" height="500">
  <defs>
    <linearGradient id="g" x1="0" y1="0" x2="1" y2="1">
      <stop offset="0%" stop-color="#1f1147"/>
      <stop offset="100%" stop-color="#0a0a14"/>
    </linearGradient>
  </defs>
  <rect width="800" height="500" fill="url(#g)"/>
  <g stroke="#8B5CF6" stroke-width="1" opacity="0.18">
    <line x1="120" y1="120" x2="700" y2="120"/>
    <line x1="120" y1="170" x2="700" y2="170"/>
    <line x1="120" y1="220" x2="700" y2="220"/>
    <line x1="120" y1="270" x2="700" y2="270"/>
    <line x1="120" y1="320" x2="700" y2="320"/>
  </g>
  <g font-family="ui-monospace, SFMono-Regular, monospace" font-size="11" fill="#8B5CF6" opacity="0.5">
    <text x="80" y="124">09:00</text>
    <text x="80" y="174">10:00</text>
    <text x="80" y="224">11:00</text>
    <text x="80" y="274">12:00</text>
    <text x="80" y="324">13:00</text>
  </g>
  <g>
    <rect x="140" y="128" width="240" height="38" rx="6" fill="#8B5CF6" opacity="0.85"/>
    <rect x="140" y="178" width="320" height="38" rx="6" fill="#8B5CF6" opacity="0.55"/>
    <rect x="140" y="228" width="180" height="38" rx="6" fill="#8B5CF6" opacity="0.35"/>
    <rect x="340" y="278" width="280" height="38" rx="6" fill="#8B5CF6" opacity="0.65"/>
  </g>
  <line x1="500" y1="100" x2="500" y2="340" stroke="#A78BFA" stroke-width="2" stroke-dasharray="4 4" opacity="0.9"/>
  <circle cx="500" cy="100" r="5" fill="#A78BFA"/>
  <text x="60" y="410" font-family="ui-monospace, SFMono-Regular, monospace" font-size="44" fill="#f4f4f5" font-weight="600">timebox</text>
  <text x="60" y="440" font-family="ui-monospace, SFMono-Regular, monospace" font-size="18" fill="#a1a1aa">react · typescript · vite · drizzle · cloudflare</text>
</svg>
