<svg xmlns="http://www.w3.org/2000/svg" viewBox="0 0 800 500" width="800" height="500">
  <defs>
    <linearGradient id="g" x1="0" y1="0" x2="1" y2="1">
      <stop offset="0%" stop-color="#1a2e05"/>
      <stop offset="100%" stop-color="#0a0a14"/>
    </linearGradient>
  </defs>
  <rect width="800" height="500" fill="url(#g)"/>
  <g stroke="#A3E635" stroke-width="3" fill="none" opacity="0.7" stroke-linecap="round">
    <path d="M 200 180 L 240 220 L 280 180 L 320 240 L 360 200 L 400 260 L 440 220 L 480 280 L 520 240 L 560 300 L 600 260"/>
    <path d="M 200 220 L 240 260 L 280 220 L 320 280 L 360 240 L 400 300 L 440 260 L 480 320 L 520 280 L 560 340 L 600 300" opacity="0.4"/>
  </g>
  <circle cx="400" cy="170" r="32" fill="none" stroke="#A3E635" stroke-width="3"/>
  <circle cx="400" cy="170" r="6" fill="#A3E635"/>
  <text x="60" y="400" font-family="ui-monospace, SFMono-Regular, monospace" font-size="44" fill="#f4f4f5" font-weight="600">ZyzzAI</text>
  <text x="60" y="440" font-family="ui-monospace, SFMono-Regular, monospace" font-size="18" fill="#a1a1aa">react · typescript · supabase · next</text>
</svg>
